<svg width="17" height="15" viewBox="0 0 17 15" fill="none" xmlns="http://www.w3.org/2000/svg">
<path d="M2.67578 3.52539H14.6758C15.5037 3.52539 16.1758 4.19752 16.1758 5.02539V11.0254C16.1758 11.8533 15.5037 12.5254 14.6758 12.5254H2.67578C1.84791 12.5254 1.17578 11.8533 1.17578 11.0254V5.02539C1.17578 4.19752 1.84791 3.52539 2.67578 3.52539V3.52539" stroke="white" stroke-width="1.17517" stroke-linecap="round" stroke-linejoin="round"/>
<path d="M5.87598 7.375C5.87598 8.20287 6.5481 8.875 7.37598 8.875C8.20385 8.875 8.87598 8.20287 8.87598 7.375C8.87598 6.54713 8.20385 5.875 7.37598 5.875C6.5481 5.875 5.87598 6.54713 5.87598 7.375V7.375" stroke="white" stroke-width="1.17517" stroke-linecap="round" stroke-linejoin="round"/>
<path d="M3.52637 7.05078H3.53387M12.5264 7.05078H12.5339" stroke="white" stroke-width="1.17517" stroke-linecap="round" stroke-linejoin="round"/>
</svg>
