<svg width="20" height="20" viewBox="0 0 20 20" fill="none" xmlns="http://www.w3.org/2000/svg">
<path d="M13.3337 17.5008V15.8341C13.3337 13.9931 11.8413 12.5008 10.0003 12.5008H5.00033C3.15938 12.5008 1.66699 13.9931 1.66699 15.8341V17.5008M13.3337 2.60742C14.8038 2.98856 15.8305 4.31531 15.8305 5.83409C15.8305 7.35286 14.8038 8.67962 13.3337 9.06076M18.3337 17.5008V15.8341C18.3325 14.315 17.3045 12.9889 15.8337 12.6091" stroke="#0F172A" stroke-width="1.66667" stroke-linecap="round" stroke-linejoin="round"/>
<path d="M4.16699 5.83333C4.16699 7.67305 5.66061 9.16667 7.50033 9.16667C9.34004 9.16667 10.8337 7.67305 10.8337 5.83333C10.8337 3.99362 9.34004 2.5 7.50033 2.5C5.66061 2.5 4.16699 3.99362 4.16699 5.83333V5.83333" stroke="#0F172A" stroke-width="1.66667" stroke-linecap="round" stroke-linejoin="round"/>
</svg>
