<svg width="20" height="20" viewBox="0 0 20 20" fill="none" xmlns="http://www.w3.org/2000/svg">
<path d="M3.33333 2.5H7.5C7.96024 2.5 8.33333 2.8731 8.33333 3.33333V9.16667C8.33333 9.6269 7.96024 10 7.5 10H3.33333C2.8731 10 2.5 9.6269 2.5 9.16667V3.33333C2.5 2.8731 2.8731 2.5 3.33333 2.5V2.5" stroke="white" stroke-width="1.66667" stroke-linecap="round" stroke-linejoin="round"/>
<path d="M12.5003 2.5H16.667C17.1272 2.5 17.5003 2.8731 17.5003 3.33333V5.83333C17.5003 6.29357 17.1272 6.66667 16.667 6.66667H12.5003C12.0401 6.66667 11.667 6.29357 11.667 5.83333V3.33333C11.667 2.8731 12.0401 2.5 12.5003 2.5V2.5" stroke="white" stroke-width="1.66667" stroke-linecap="round" stroke-linejoin="round"/>
<path d="M12.5003 10H16.667C17.1272 10 17.5003 10.3731 17.5003 10.8333V16.6667C17.5003 17.1269 17.1272 17.5 16.667 17.5H12.5003C12.0401 17.5 11.667 17.1269 11.667 16.6667V10.8333C11.667 10.3731 12.0401 10 12.5003 10V10" stroke="white" stroke-width="1.66667" stroke-linecap="round" stroke-linejoin="round"/>
<path d="M3.33333 13.334H7.5C7.96024 13.334 8.33333 13.7071 8.33333 14.1673V16.6673C8.33333 17.1276 7.96024 17.5007 7.5 17.5007H3.33333C2.8731 17.5007 2.5 17.1276 2.5 16.6673V14.1673C2.5 13.7071 2.8731 13.334 3.33333 13.334V13.334" stroke="white" stroke-width="1.66667" stroke-linecap="round" stroke-linejoin="round"/>
</svg>
