<svg width="20" height="20" viewBox="0 0 20 20" fill="none" xmlns="http://www.w3.org/2000/svg">
<path d="M8.55705 17.4993C8.85478 18.015 9.40497 18.3326 10.0004 18.3326C10.5958 18.3326 11.146 18.015 11.4437 17.4993M2.71872 12.771C2.49629 13.0148 2.43868 13.3669 2.57181 13.6688C2.70493 13.9708 3.00371 14.1658 3.33372 14.166H16.6671C16.997 14.1661 17.296 13.9715 17.4295 13.6698C17.5629 13.368 17.5058 13.0159 17.2837 12.7718C16.1754 11.6293 15.0004 10.4152 15.0004 6.66602C15.0004 3.90644 12.76 1.66602 10.0004 1.66602C7.24081 1.66602 5.00038 3.90644 5.00038 6.66602C5.00038 10.4152 3.82455 11.6293 2.71872 12.771" stroke="#0F172A" stroke-width="1.66667" stroke-linecap="round" stroke-linejoin="round"/>
</svg>
