<svg width="20" height="20" viewBox="0 0 20 20" fill="none" xmlns="http://www.w3.org/2000/svg">
<path d="M5.00033 14.9993H3.33366C2.41318 14.9993 1.66699 14.2532 1.66699 13.3327V9.16602C1.66699 8.24554 2.41318 7.49935 3.33366 7.49935H16.667C17.5875 7.49935 18.3337 8.24554 18.3337 9.16602V13.3327C18.3337 14.2532 17.5875 14.9993 16.667 14.9993H15.0003M5.00033 7.49935V2.49935C5.00033 2.03911 5.37342 1.66602 5.83366 1.66602H14.167C14.6272 1.66602 15.0003 2.03911 15.0003 2.49935V7.49935" stroke="white" stroke-width="1.66667" stroke-linecap="round" stroke-linejoin="round"/>
<path d="M5.83333 11.666H14.1667C14.6269 11.666 15 12.0391 15 12.4993V17.4993C15 17.9596 14.6269 18.3327 14.1667 18.3327H5.83333C5.3731 18.3327 5 17.9596 5 17.4993V12.4993C5 12.0391 5.3731 11.666 5.83333 11.666V11.666" stroke="white" stroke-width="1.66667" stroke-linecap="round" stroke-linejoin="round"/>
</svg>
