<svg width="20" height="20" viewBox="0 0 20 20" fill="none" xmlns="http://www.w3.org/2000/svg">
<path d="M8.0591 3.44712C8.15425 2.44616 8.99488 1.68164 10.0004 1.68164C11.0058 1.68164 11.8465 2.44616 11.9416 3.44712C11.9976 4.0804 12.3588 4.64662 12.9095 4.96435C13.4602 5.28207 14.1311 5.31141 14.7074 5.04295C15.621 4.6282 16.7001 4.97431 17.202 5.84304C17.7039 6.71176 17.4647 7.81955 16.6491 8.40378C16.1289 8.76883 15.8191 9.36449 15.8191 10C15.8191 10.6356 16.1289 11.2312 16.6491 11.5963C17.4647 12.1805 17.7039 13.2883 17.202 14.157C16.7001 15.0258 15.621 15.3719 14.7074 14.9571C14.1311 14.6887 13.4602 14.718 12.9095 15.0357C12.3588 15.3534 11.9976 15.9197 11.9416 16.553C11.8465 17.5539 11.0058 18.3184 10.0004 18.3184C8.99488 18.3184 8.15425 17.5539 8.0591 16.553C8.0032 15.9194 7.64187 15.353 7.09096 15.0352C6.54006 14.7175 5.86881 14.6883 5.29244 14.9571C4.3789 15.3719 3.29973 15.0258 2.79784 14.157C2.29595 13.2883 2.53515 12.1805 3.35077 11.5963C3.87102 11.2312 4.18073 10.6356 4.18073 10C4.18073 9.36449 3.87102 8.76883 3.35077 8.40378C2.53634 7.81928 2.29777 6.71249 2.79909 5.84438C3.30041 4.97627 4.37828 4.6297 5.2916 5.04295C5.8679 5.31141 6.53888 5.28207 7.08955 4.96435C7.64022 4.64662 8.00143 4.0804 8.05744 3.44712" stroke="#0F172A" stroke-width="1.66667" stroke-linecap="round" stroke-linejoin="round"/>
<path d="M7.5 10C7.5 11.3798 8.62021 12.5 10 12.5C11.3798 12.5 12.5 11.3798 12.5 10C12.5 8.62021 11.3798 7.5 10 7.5C8.62021 7.5 7.5 8.62021 7.5 10V10" stroke="#0F172A" stroke-width="1.66667" stroke-linecap="round" stroke-linejoin="round"/>
</svg>
